<svg xmlns="http://www.w3.org/2000/svg" viewBox="0 0 21.1 26.38"><defs><style>.cls-1{fill:#fff;}</style></defs><title>bulp</title><g id="Vrstva_2" data-name="Vrstva 2"><g id="Vrstva_1-2" data-name="Vrstva 1"><path class="cls-1" d="M12.47,19l.17,0a.61.61,0,0,0,.58-.44l2.29-8-3,2.13-2.1-1.87-1.09,1.8L6.21,10.81l2,7.74a.61.61,0,0,0,1.18-.3L8.11,13.36l1.62,1,1-1.58,1.73,1.54,1-.69-1.34,4.65A.61.61,0,0,0,12.47,19Z"/><path class="cls-1" d="M12.71,25.16h-4a.61.61,0,0,0,0,1.21h4a.61.61,0,0,0,0-1.21Z"/><path class="cls-1" d="M14.23,22.62l-7,0h0a.61.61,0,0,0,0,1.21l7,0h0a.61.61,0,0,0,0-1.21Z"/><path class="cls-1" d="M15.85,20.07,5.62,20h0a.61.61,0,0,0,0,1.21l10.23,0h0a.61.61,0,0,0,0-1.21Z"/><path class="cls-1" d="M10.58,0h0A10.5,10.5,0,0,0,3.11,3,10.46,10.46,0,0,0,4.56,19.13a.61.61,0,0,0,.69-1A9.27,9.27,0,0,1,10.54,1.21h0a9.32,9.32,0,0,1,9.31,9.31,9.16,9.16,0,0,1-3,6.75.61.61,0,1,0,.83.89A10.48,10.48,0,0,0,10.58,0Z"/></g></g></svg>