<svg xmlns="http://www.w3.org/2000/svg" viewBox="0 0 182.26 155.3"><defs><style>.cls-1{fill:#6d6d6c;}.cls-2{fill:#e6e000;}</style></defs><title>logo</title><g id="Vrstva_2" data-name="Vrstva 2"><g id="Vrstva_1-2" data-name="Vrstva 1"><path class="cls-1" d="M135.31,155.29a25.19,25.19,0,0,1-17.25-7.41,25.57,25.57,0,0,1-7.54-18.1c0-4-.25-19-.45-32.27-.17-11.26-.33-21.61-.34-24a12.21,12.21,0,0,0-3.59-8.63,12,12,0,0,0-8.57-3.53,12.19,12.19,0,0,0-12,12.29c0,1.83.09,5.3.18,9.11.11,4.72.23,10,.25,13.35a30.43,30.43,0,0,1-30.12,30.65A29.92,29.92,0,0,1,34.39,118a30.37,30.37,0,0,1-9-21.49c0-7.14,0-19.61,0-23.34h4c0,.17,0,16.37,0,23.32a26.36,26.36,0,0,0,7.78,18.66,26.06,26.06,0,0,0,18.58,7.64A26.4,26.4,0,0,0,81.92,96.14c0-3.37-.14-8.59-.25-13.28-.09-3.85-.17-7.34-.18-9.18A16.23,16.23,0,0,1,97.55,57.34,15.76,15.76,0,0,1,109,62a16.21,16.21,0,0,1,4.78,11.47c0,2.38.17,12.7.34,23.94.2,13.28.43,28.33.45,32.31A21.56,21.56,0,0,0,120.91,145a21.19,21.19,0,0,0,15.18,6.24,21.55,21.55,0,0,0,21-17.73l-12.8.07a10.29,10.29,0,0,1-4.22-1,8.06,8.06,0,0,1-4.45-7.61l-.14-29.62c0-3.49,2.26-8.69,8.58-8.72l29.4-.16a10.31,10.31,0,0,1,4.22,1,8.07,8.07,0,0,1,4.45,7.6l.14,29.62a10.27,10.27,0,0,1-1,4.23,8,8,0,0,1-7.57,4.49l-12.5.07a25.59,25.59,0,0,1-25.06,21.78h-.8M173.47,90.5l-29.39.16a4.42,4.42,0,0,0-4.57,4.68l.14,29.61a4,4,0,0,0,2.21,4,6.32,6.32,0,0,0,2.4.6l13.17-.07,0-7.72a11.62,11.62,0,0,1-6.8-3.34,11.85,11.85,0,0,1,8.22-20.24,11.55,11.55,0,0,1,8.34,3.43,11.87,11.87,0,0,1-5.72,20l0,7.89,12.19-.07a4.41,4.41,0,0,0,4.57-4.68l-.14-29.61a4,4,0,0,0-2.21-4,6,6,0,0,0-2.4-.6m-14.4,11.74h-.24a7.82,7.82,0,0,0-5.39,13.35,7.65,7.65,0,0,0,5.47,2.25,7.82,7.82,0,0,0,5.39-13.35,7.64,7.64,0,0,0-5.23-2.25"/><path class="cls-2" d="M22.46,67a1.54,1.54,0,0,1,0-3.09l10.07,0a1.56,1.56,0,0,1,1.55,1.54A1.55,1.55,0,0,1,32.58,67L22.51,67h0m-3.89-6.46a1.54,1.54,0,0,1,0-3.09l17.78-.09a1.54,1.54,0,0,1,0,3.09l-17.78.09h0m-4.14-6.45a1.54,1.54,0,0,1,0-3.09l26-.13a1.54,1.54,0,1,1,0,3.09l-26,.13ZM12.59,49a1.53,1.53,0,0,1-.82-.26A26.77,26.77,0,1,1,45.25,46a1.54,1.54,0,1,1-2.12-2.24,23.27,23.27,0,0,0,7.37-17.2A23.74,23.74,0,0,0,9.94,10.07a23.48,23.48,0,0,0,3.56,36.08,1.54,1.54,0,0,1-.9,2.82m9.76-.66a1.54,1.54,0,0,1-1.45-1.15L15.78,27.54l7.93,4.68,2.73-4.59,5.36,4.69,7.61-5.46L33.74,47.14a1.54,1.54,0,0,1-3-.83l3.3-11.82-2.46,1.77-4.41-3.86-2.41,4L20.65,34l3.23,12.39a1.54,1.54,0,0,1-1.53,1.93"/></g></g></svg>