<?xml version="1.0" standalone="no"?>
<!DOCTYPE svg PUBLIC "-//W3C//DTD SVG 20010904//EN"
 "http://www.w3.org/TR/2001/REC-SVG-20010904/DTD/svg10.dtd">
<svg version="1.0" xmlns="http://www.w3.org/2000/svg"
 width="832.000000pt" height="832.000000pt" viewBox="0 0 832.000000 832.000000"
 preserveAspectRatio="xMidYMid meet">
<metadata>
Created by potrace 1.11, written by Peter Selinger 2001-2013
</metadata>
<g transform="translate(0.000000,832.000000) scale(0.100000,-0.100000)"
fill="#000000" stroke="none">
<path d="M3929 8316 c-2 -2 -40 -7 -84 -10 -72 -6 -154 -17 -240 -32 -16 -3
-43 -7 -60 -9 -100 -12 -441 -110 -577 -166 -37 -15 -68 -26 -68 -24 0 2 -21
-7 -47 -20 -27 -13 -51 -24 -56 -24 -4 0 -35 -15 -70 -33 -34 -18 -64 -32 -67
-33 -3 0 -9 -3 -15 -7 -5 -3 -37 -21 -70 -39 -33 -18 -87 -49 -120 -69 -33
-20 -71 -43 -84 -51 -14 -8 -30 -17 -35 -22 -6 -4 -54 -37 -106 -74 -52 -37
-97 -69 -100 -72 -3 -3 -27 -24 -55 -46 -27 -21 -52 -42 -55 -45 -3 -3 -40
-36 -82 -73 -74 -65 -160 -151 -247 -247 -22 -25 -52 -57 -66 -72 -14 -15 -25
-32 -25 -37 0 -6 -4 -11 -8 -11 -11 0 -232 -300 -232 -315 0 -3 -19 -35 -43
-72 -55 -87 -173 -322 -220 -438 -37 -95 -84 -217 -85 -225 0 -3 -3 -12 -6
-20 -6 -19 -39 -132 -42 -145 -1 -5 -13 -55 -27 -110 -14 -55 -30 -129 -36
-165 -6 -36 -13 -76 -16 -90 -3 -14 -7 -50 -10 -80 -3 -30 -7 -66 -10 -80 -7
-34 -18 -257 -18 -355 0 -83 10 -281 17 -325 3 -14 7 -49 10 -78 9 -80 16
-119 38 -227 11 -55 22 -109 24 -120 4 -27 45 -170 77 -270 57 -181 168 -430
272 -610 60 -104 207 -324 257 -385 16 -19 32 -40 37 -45 103 -133 340 -371
486 -487 55 -44 108 -86 118 -94 9 -8 45 -33 79 -57 58 -39 68 -42 129 -42 53
0 72 5 101 24 69 48 97 115 84 205 -8 48 -42 92 -106 137 -39 27 -33 22 -155
120 -125 101 -260 231 -347 333 -18 22 -43 50 -55 62 -13 13 -23 26 -23 29 0
3 -11 18 -25 34 -28 30 -148 200 -180 253 -199 332 -324 648 -390 988 -13 65
-18 97 -21 115 -4 35 -15 119 -19 150 -4 25 -7 81 -16 320 -2 26 11 244 15
275 3 19 8 55 11 80 3 25 7 54 9 65 2 11 7 43 12 70 10 64 11 69 14 78 1 4 4
16 5 27 1 11 3 21 5 23 1 1 3 9 5 17 14 70 77 283 95 325 5 11 12 31 16 45 7
26 48 123 64 152 6 10 10 22 10 27 0 4 12 30 27 57 15 27 28 54 29 59 1 6 30
59 64 118 143 250 289 440 484 632 137 135 157 152 276 243 52 40 100 76 105
80 19 14 130 87 150 98 11 6 49 28 85 49 35 21 123 66 195 101 109 52 171 76
355 142 8 3 20 6 25 7 6 2 42 12 80 23 73 22 181 48 238 57 17 3 39 8 47 10 8
2 39 7 69 10 30 4 63 9 75 11 117 24 591 24 726 0 14 -3 48 -7 75 -11 28 -3
57 -8 65 -10 8 -2 31 -6 50 -9 121 -19 371 -87 465 -127 11 -4 67 -27 125 -50
58 -23 107 -46 108 -51 2 -4 10 -8 17 -8 29 0 317 -162 399 -225 26 -19 49
-35 52 -35 4 0 80 -56 94 -70 3 -3 28 -23 55 -45 89 -71 325 -295 325 -309 0
-2 15 -19 33 -38 47 -51 111 -129 116 -142 2 -6 7 -13 10 -16 17 -13 71 -89
71 -99 0 -6 4 -11 8 -11 5 0 17 -16 28 -35 10 -19 22 -35 26 -35 5 0 8 -6 8
-13 0 -8 12 -32 28 -53 15 -22 34 -53 43 -69 176 -319 286 -628 343 -962 23
-133 25 -151 33 -248 12 -167 6 -490 -11 -585 -3 -14 -7 -43 -10 -65 -4 -36
-14 -91 -31 -180 -3 -16 -8 -38 -11 -47 -3 -9 -6 -25 -8 -35 -2 -10 -9 -38
-16 -63 -7 -25 -13 -49 -15 -55 -1 -5 -4 -17 -7 -25 -3 -8 -20 -60 -38 -115
-18 -55 -41 -118 -51 -139 -11 -22 -19 -43 -19 -47 0 -4 -23 -56 -51 -115
-114 -237 -257 -456 -434 -663 -11 -13 -76 -81 -145 -151 -155 -157 -165 -172
-157 -256 6 -66 10 -73 62 -125 75 -74 204 -62 284 26 17 19 36 35 41 35 6 0
10 3 10 8 0 4 36 44 80 90 285 296 526 675 680 1067 61 153 120 348 146 475 3
14 10 45 15 70 6 25 12 54 14 65 14 78 25 149 30 200 3 33 9 74 12 90 9 45 9
529 0 614 -16 149 -41 307 -62 391 -8 30 -16 69 -19 85 -25 134 -163 526 -213
602 -9 13 -13 23 -10 23 6 0 -86 179 -119 232 -13 21 -24 40 -24 43 0 4 -17
32 -37 63 -21 32 -42 65 -48 74 -12 19 -94 137 -106 152 -5 6 -24 30 -41 52
-198 251 -394 444 -626 617 -53 40 -98 75 -100 80 -2 4 -8 7 -12 7 -5 0 -38
20 -74 45 -37 25 -69 45 -72 45 -3 0 -18 8 -32 18 -161 112 -632 313 -837 357
-11 2 -36 9 -55 15 -55 17 -276 58 -375 70 -49 7 -101 14 -115 17 -28 6 -566
14 -571 9z"/>
<path d="M5650 4921 c-47 -33 -89 -64 -95 -68 -5 -5 -95 -69 -200 -143 -104
-73 -192 -136 -195 -139 -3 -3 -38 -28 -79 -55 -40 -27 -79 -56 -86 -63 -8 -7
-16 -13 -20 -13 -6 0 -72 -47 -85 -60 -3 -3 -24 -18 -48 -34 -47 -32 -39 -34
-102 24 -9 8 -47 42 -85 75 -37 33 -80 71 -96 85 -44 41 -151 135 -198 177
-24 21 -67 59 -95 84 -82 74 -123 109 -129 109 -3 0 -15 -17 -28 -37 -12 -21
-31 -51 -41 -68 -10 -16 -21 -38 -24 -47 -4 -10 -10 -18 -15 -18 -5 0 -9 -7
-9 -15 0 -8 -4 -15 -10 -15 -5 0 -10 -4 -10 -9 0 -12 -186 -321 -203 -338 -9
-9 -37 3 -119 52 -59 35 -130 76 -157 92 -28 15 -98 56 -156 91 -59 34 -111
62 -116 62 -5 0 -9 5 -9 10 0 6 -4 10 -9 10 -5 0 -86 45 -181 100 -94 55 -174
100 -179 100 -5 0 -14 7 -21 15 -7 8 -18 15 -25 15 -14 0 -14 0 30 -165 14
-55 28 -107 30 -115 2 -8 31 -121 65 -250 33 -129 63 -243 65 -253 2 -10 7
-27 10 -37 3 -10 8 -27 10 -37 4 -17 67 -262 106 -413 31 -117 50 -194 54
-210 2 -8 17 -69 35 -135 58 -220 108 -414 115 -448 2 -9 6 -21 9 -25 3 -5 8
-22 11 -38 19 -108 87 -337 106 -364 34 -45 109 -79 164 -74 72 6 128 42 160
103 24 47 28 80 15 132 -6 24 -12 53 -14 64 -2 11 -5 21 -6 23 -3 2 -3 4 -14
52 -4 19 -12 49 -17 65 -10 32 -109 409 -114 435 -4 17 -57 220 -125 475 -12
44 -23 88 -25 99 -3 10 -12 44 -21 75 -15 53 -20 70 -29 116 -3 11 -11 41 -19
67 -7 26 -12 49 -9 52 5 5 157 -87 187 -113 10 -9 19 -14 20 -12 0 3 19 -7 41
-21 118 -74 256 -158 260 -158 3 0 5 5 5 10 0 6 5 16 10 23 6 7 45 66 86 132
42 66 85 132 95 147 10 15 19 31 19 37 0 5 4 11 8 13 4 2 25 31 46 66 20 34
41 62 46 62 4 0 21 -12 38 -27 16 -16 53 -48 81 -73 29 -25 67 -58 85 -75 30
-27 104 -94 208 -185 22 -19 60 -54 86 -76 l46 -42 110 76 c61 42 129 89 150
104 21 15 42 28 47 28 4 0 -2 -28 -12 -62 -11 -35 -22 -74 -25 -87 -3 -14 -7
-28 -10 -33 -3 -4 -7 -16 -9 -25 -2 -10 -33 -121 -70 -248 -37 -126 -71 -243
-75 -260 -5 -16 -25 -86 -45 -155 -43 -149 -65 -229 -70 -253 -2 -9 -7 -22
-10 -27 -4 -6 -8 -22 -11 -36 -3 -14 -12 -46 -20 -71 -9 -26 -18 -56 -20 -68
-2 -12 -13 -50 -24 -85 -11 -34 -20 -79 -20 -99 1 -51 31 -112 74 -147 32 -27
42 -30 91 -27 64 3 109 23 148 66 30 34 31 38 119 342 33 116 67 233 75 260 8
28 16 57 17 65 1 8 7 31 13 50 24 75 55 181 58 198 2 9 4 17 5 17 1 0 3 7 5
15 5 26 66 234 72 250 8 19 7 17 17 65 4 22 11 45 16 50 4 6 11 28 15 50 9 44
11 53 15 60 1 3 3 8 4 13 2 4 8 27 16 52 15 51 17 57 24 85 2 11 44 155 91
320 48 165 88 307 90 315 2 8 27 94 55 190 27 96 49 178 48 182 -2 5 -41 -19
-88 -51z"/>
<path d="M2561 1988 c-49 -24 -86 -75 -98 -133 -10 -45 -10 -48 2 -90 12 -45
54 -94 99 -117 40 -20 46 -20 1678 -20 l1638 0 42 25 c66 39 85 70 95 154 11
94 -55 181 -150 200 -11 2 -16 -1 -12 -8 5 -7 -263 -8 -912 -4 -2531 16 -2334
17 -2382 -7z"/>
<path d="M3107 1177 c-112 -27 -174 -166 -120 -272 35 -68 87 -97 180 -100 34
-2 66 -6 71 -9 6 -3 13 -3 15 1 6 10 210 9 226 -1 6 -4 11 -4 11 1 0 4 29 8
65 8 36 0 65 -4 65 -8 0 -5 5 -5 12 -1 15 9 71 10 86 1 6 -4 13 -4 15 0 6 10
210 9 226 -1 6 -4 11 -4 11 1 0 10 111 9 128 -1 7 -4 12 -4 12 1 0 9 72 9 88
-1 6 -3 13 -3 15 1 6 10 210 9 226 -1 6 -4 11 -4 11 1 0 4 29 8 65 8 36 0 65
-4 65 -8 0 -5 5 -5 12 -1 15 9 71 10 86 1 6 -4 13 -4 15 0 6 10 210 9 226 -1
6 -4 11 -4 11 1 0 10 111 9 128 -1 7 -4 12 -4 12 1 0 4 38 8 85 8 47 0 85 -4
85 -8 0 -4 8 -4 18 1 9 4 37 7 61 6 55 -2 97 15 137 58 86 91 62 243 -49 300
l-42 22 -1112 0 c-611 1 -1127 -3 -1146 -7z"/>
<path d="M3596 379 c-54 -9 -98 -36 -130 -81 -58 -81 -38 -195 47 -262 l39
-31 662 -3 c721 -3 701 -4 759 54 94 94 66 247 -56 310 -28 15 -100 17 -658
18 -344 0 -643 -2 -663 -5z"/>
</g>
</svg>
